<?xml version="1.0" standalone="no"?>
<!DOCTYPE svg PUBLIC "-//W3C//DTD SVG 1.1//EN" "http://www.w3.org/Graphics/SVG/1.1/DTD/svg11.dtd">
<svg width="100%" height="100%" viewBox="0 0 2363 4725" version="1.1" xmlns="http://www.w3.org/2000/svg" xmlns:xlink="http://www.w3.org/1999/xlink" xml:space="preserve" style="fill-rule:evenodd;clip-rule:evenodd;stroke-linejoin:round;stroke-miterlimit:1.41421;">
    <g id="Layer1">
        <path d="M2362.2,236.572C2362.2,106.005 2256.2,0 2125.63,0L236.572,0C106.005,0 0,106.005 0,236.572L0,4487.84C0,4618.4 106.005,4724.41 236.572,4724.41L2125.63,4724.41C2256.2,4724.41 2362.2,4618.4 2362.2,4487.84L2362.2,236.572Z" style="fill:rgb(48,96,74);stroke-width:6.67px;stroke:black;"/>
        <path d="M1420.62,195.515C1420.62,187.568 1414.17,181.115 1406.23,181.115L947.788,181.115C939.84,181.115 933.388,187.568 933.388,195.515L933.388,224.314C933.388,232.261 939.84,238.713 947.788,238.713L1406.23,238.713C1414.17,238.713 1420.62,232.261 1420.62,224.314L1420.62,195.515Z" style="fill:black;"/>
        <g transform="matrix(1,0,0,1.03566,0,-151.804)">
            <path d="M2277.83,681.221C2277.83,571.692 2185.74,482.769 2072.3,482.769L293.236,482.769C179.803,482.769 87.709,571.692 87.709,681.221L87.709,4058.92C87.709,4168.45 179.803,4257.38 293.236,4257.38L2072.3,4257.38C2185.74,4257.38 2277.83,4168.45 2277.83,4058.92L2277.83,681.221Z" style="fill:black;"/>
        </g>
        <ellipse cx="1190.41" cy="4496.83" rx="138.686" ry="128.438" style="fill:black;"/>
    </g>
</svg>
